<svg xmlns="http://www.w3.org/2000/svg" viewBox="0 0 500.76 164.52"><defs><radialGradient id="radial-gradient" cx="82.85" cy="73.69" r="16.24" gradientUnits="userSpaceOnUse"><stop offset="0" stop-color="#797979"/><stop offset="1" stop-color="#4c4c4c"/></radialGradient><style>.cls-1{fill:#fff}.cls-12{fill:#372e26}</style></defs><g id="图层_2" data-name="图层 2"><g id="Layer_1" data-name="Layer 1"><path class="cls-1" d="M0 0h500.76v164.52H0z"/><circle cx="82.26" cy="82.26" r="46.15" transform="rotate(-71.22 82.25 82.26)" fill="#f5bb60"/><circle cx="77.61" cy="77.61" r="41.5" transform="rotate(-64.64 77.626 77.618)" fill="#e86f32"/><path d="M119.11 72.08a36 36 0 11-36-36 36 36 0 0136 36z" fill="#e53c41"/><path d="M119.11 75A33.09 33.09 0 1186 41.87 33.09 33.09 0 01119.11 75z" fill="#bfd141"/><path d="M114.24 77.39a30.65 30.65 0 11-30.65-30.65 30.66 30.66 0 0130.65 30.65z" fill="#6db64c"/><path d="M104.54 72.54a25.8 25.8 0 11-25.8-25.8 25.8 25.8 0 0125.8 25.8z" fill="#afdbe7"/><path d="M104.54 68.33a21.6 21.6 0 11-21.6-21.59 21.6 21.6 0 0121.6 21.59z" fill="#57b9df"/><path d="M104.54 71a19 19 0 11-19-19 19 19 0 0119 19z" fill="#00b2d6"/><path d="M99.08 73.69a16.24 16.24 0 11-16.23-16.24 16.24 16.24 0 0116.23 16.24z" fill="url(#radial-gradient)"/><path d="M99.08 73.69a16.24 16.24 0 11-16.23-16.24 16.24 16.24 0 0116.23 16.24z" fill="#221d1e"/><path class="cls-1" d="M92.26 69.1c-1.14 2.53-3.37 4-5 3.27s-2-3.37-.87-5.9 3.36-4 5-3.26 2 3.36.87 5.89z"/><path class="cls-12" d="M143.23 64.59a.53.53 0 01.57-.54h14.53c8.27 0 12.18 3.83 12.18 9.62a8 8 0 01-4.51 7.65v.1a8.51 8.51 0 015.23 8.13c0 7.17-4.89 10.62-13.44 10.62h-14a.52.52 0 01-.57-.53zm14.93 14.5c3.45 0 5.57-1.92 5.57-4.73s-2.12-4.78-5.57-4.78h-7.81c-.23 0-.34.1-.34.32v8.87c0 .21.11.32.34.32zm-7.81 15.56h8.15c3.79 0 5.92-2 5.92-5.05s-2.13-5-5.92-5h-8.15c-.23 0-.34.11-.34.32v9.4c-.01.22.11.33.34.33zM176 100.17a.52.52 0 01-.58-.53V75.1a.52.52 0 01.58-.53h5.28a.52.52 0 01.58.53v2.18h.05c1.32-2 3.68-3.29 7.18-3.29a8.71 8.71 0 015.8 2.12c.29.27.35.48.12.74l-3.05 3.56a.54.54 0 01-.8.11A8 8 0 00187 79.3c-3.62 0-5.22 2.39-5.22 6.48v13.86a.52.52 0 01-.58.53zM196 93.69a17.37 17.37 0 01-.92-6.32 17.44 17.44 0 01.92-6.32c1.55-4.46 5.8-7.06 11.42-7.06s9.82 2.6 11.37 7.06a17.67 17.67 0 01.92 6.32 17.59 17.59 0 01-.92 6.32c-1.55 4.46-5.8 7.06-11.37 7.06s-9.84-2.6-11.42-7.06zm16.59-1.59a13.42 13.42 0 00.58-4.73 13.59 13.59 0 00-.58-4.73 5.1 5.1 0 00-5.17-3.34 5.17 5.17 0 00-5.22 3.34 13.59 13.59 0 00-.58 4.73 13.42 13.42 0 00.58 4.73 5.17 5.17 0 005.22 3.34 5.1 5.1 0 005.2-3.34zM247.6 100.17a.71.71 0 01-.69-.53l-5.34-16.36h-.12l-5.4 16.36a.7.7 0 01-.68.53h-4.71a.71.71 0 01-.69-.53l-8.73-24.54c-.12-.32.06-.53.4-.53h5.51a.68.68 0 01.75.53l5.34 16.9h.12l5.28-16.89a.77.77 0 01.74-.53h4.14a.8.8 0 01.75.53L249.89 92h.11l5.05-16.89a.69.69 0 01.75-.53h5.51c.35 0 .52.21.4.53L253 99.64a.7.7 0 01-.68.53zM262.86 96.72a.49.49 0 010-.75l3.27-3.18a.59.59 0 01.8 0 13.42 13.42 0 008.1 2.92c3.39 0 5.11-1.28 5.11-3 0-1.54-1-2.49-4.59-2.81l-3-.27c-5.63-.53-8.5-3.19-8.5-7.54 0-4.94 3.85-8.07 10.74-8.07a17.64 17.64 0 0110.39 3.13.5.5 0 01.12.74L282.49 81a.59.59 0 01-.8.1 14.16 14.16 0 00-7.23-2.1c-2.76 0-4.2 1.11-4.2 2.65s1 2.39 4.54 2.71l3 .27c5.8.53 8.55 3.29 8.55 7.49 0 5.1-4 8.65-11.6 8.65a18 18 0 01-11.89-4.05zM290.75 93.64a18.34 18.34 0 01-1-6.27 18.86 18.86 0 01.92-6.32C292.24 76.59 296.49 74 302 74c5.69 0 9.82 2.71 11.37 7.06.63 1.81.92 3.56.92 7.7 0 .32-.23.53-.63.53H296.6c-.23 0-.34.11-.34.32a5.32 5.32 0 00.4 2c.92 2.49 3.1 3.87 6.2 3.87a8.69 8.69 0 006.49-2.48.62.62 0 01.86-.11l3.39 2.77a.45.45 0 01.06.74c-2.36 2.55-6.26 4.35-11.37 4.35-5.86 0-9.99-2.65-11.54-7.11zm16.71-11.32c-.75-2.07-2.82-3.29-5.4-3.29s-4.71 1.22-5.46 3.29a6.09 6.09 0 00-.34 2.18c0 .22.11.32.34.32h10.86c.23 0 .34-.1.34-.32a6.09 6.09 0 00-.34-2.18zM319.05 100.17a.52.52 0 01-.57-.53V75.1a.52.52 0 01.57-.53h5.29a.52.52 0 01.57.53v2.18h.09c1.32-2 3.67-3.29 7.18-3.29a8.69 8.69 0 015.79 2.12c.29.27.35.48.12.74l-3 3.56a.55.55 0 01-.81.11 7.91 7.91 0 00-4.07-1.22c-3.62 0-5.23 2.39-5.23 6.48v13.86a.52.52 0 01-.57.53zM339.05 96a.55.55 0 01-.12-.79l3.56-3.83a.56.56 0 01.81 0 18.27 18.27 0 0010.62 3.82c4.65 0 7.35-2.17 7.35-5.2 0-2.6-1.72-4.3-7.12-5l-2.07-.27c-7.52-1-11.77-4.3-11.77-10.3 0-6.53 5.17-10.89 13.21-10.89a22.65 22.65 0 0112.63 3.61.46.46 0 01.12.75l-2.76 3.93a.61.61 0 01-.8.16 17.36 17.36 0 00-9.36-2.82c-4 0-6.15 2-6.15 4.83 0 2.5 1.9 4.2 7.18 4.89l2.07.27c7.52 1 11.66 4.24 11.66 10.46 0 6.42-5 11.2-14.7 11.2-5.75-.07-11.32-2.19-14.36-4.82zM380 100.62c-5.57 0-7.69-2.49-7.69-7.49V79.64c0-.21-.12-.32-.35-.32h-1.83a.52.52 0 01-.58-.53v-3.56a.53.53 0 01.58-.53H372c.23 0 .35-.1.35-.32v-7a.53.53 0 01.57-.53h5.29a.53.53 0 01.57.53v7c0 .22.12.32.35.32h3.67a.53.53 0 01.57.53v3.56a.52.52 0 01-.57.53h-3.67c-.23 0-.35.11-.35.32v13.28c0 1.81.81 2.39 2.59 2.39h1.43a.52.52 0 01.57.53v4.25a.52.52 0 01-.57.53zM404.36 100.17a.52.52 0 01-.57-.53v-1.86h-.06c-1.32 1.75-3.91 3-7.81 3-5.06 0-9.31-2.44-9.31-7.8 0-5.58 4.25-8.13 11.09-8.13h5.63c.22 0 .34-.1.34-.32v-1.25c0-2.92-1.49-4.25-6.14-4.25a10.27 10.27 0 00-6.32 1.75.53.53 0 01-.8-.1l-2.13-3.51a.47.47 0 01.12-.69c2.23-1.48 5.28-2.48 9.82-2.48 8.44 0 11.54 2.65 11.54 8.92v16.72a.52.52 0 01-.58.53zm-.69-8.6v-2a.3.3 0 00-.34-.32h-4.6c-4.13 0-6 1.06-6 3.45 0 2.13 1.66 3.19 4.77 3.19 3.99.03 6.17-1.4 6.17-4.32zM414.81 93.69a18.55 18.55 0 01-.86-6.32 18.55 18.55 0 01.86-6.32c1.6-4.57 5.85-7.06 11.42-7.06a12.48 12.48 0 019.59 4 .49.49 0 01-.05.74l-3.62 2.92a.54.54 0 01-.8-.1 6.47 6.47 0 00-5.12-2.23 5.05 5.05 0 00-5.16 3.34 14 14 0 00-.58 4.73 14.25 14.25 0 00.58 4.78 5.07 5.07 0 005.16 3.29 6.47 6.47 0 005.12-2.23.54.54 0 01.8 0l3.62 2.92c.28.21.23.48.05.74a12.62 12.62 0 01-9.59 3.93c-5.57-.07-9.82-2.56-11.42-7.13zM458.24 100.17a1 1 0 01-.91-.53l-7-10.73-3.73 4v6.75a.52.52 0 01-.58.53h-5.28a.52.52 0 01-.57-.53v-35a.53.53 0 01.57-.54H446a.53.53 0 01.58.54v20.75l9.47-10.31a1.36 1.36 0 011.09-.53H463c.35 0 .46.32.23.53l-8.79 9.35 10.11 15.19a.32.32 0 01-.29.53z"/></g></g></svg>